<svg xmlns="http://www.w3.org/2000/svg" xmlns:xlink="http://www.w3.org/1999/xlink" width="500" zoomAndPan="magnify" viewBox="0 0 375 374.999991" height="500" preserveAspectRatio="xMidYMid meet" version="1.0"><defs><g/><clipPath id="b748a60bf8"><path d="M 125.210938 128 L 156 128 L 156 177 L 125.210938 177 Z M 125.210938 128 " clip-rule="nonzero"/></clipPath><clipPath id="ffc5ef0600"><path d="M 163 90.253906 L 212 90.253906 L 212 127 L 163 127 Z M 163 90.253906 " clip-rule="nonzero"/></clipPath><clipPath id="8a8d502cb9"><path d="M 207 116 L 249.710938 116 L 249.710938 177 L 207 177 Z M 207 116 " clip-rule="nonzero"/></clipPath><clipPath id="d7b4d82cae"><path d="M 163 122 L 230 122 L 230 214.753906 L 163 214.753906 Z M 163 122 " clip-rule="nonzero"/></clipPath></defs><g clip-path="url(#b748a60bf8)"><path fill="#f18043" d="M 154.730469 172.261719 L 133.839844 172.261719 C 132.78125 172.261719 131.773438 171.84375 131.015625 171.082031 C 130.253906 170.320312 129.832031 169.316406 129.832031 168.253906 L 129.832031 136.804688 C 129.832031 135.746094 130.253906 134.742188 131.015625 133.980469 C 131.773438 133.21875 132.78125 132.796875 133.839844 132.796875 L 155.84375 132.796875 C 155.832031 132.710938 155.820312 132.628906 155.8125 132.554688 C 155.59375 130.542969 155.683594 129.15625 155.9375 128.175781 L 133.839844 128.175781 C 129.09375 128.175781 125.207031 132.058594 125.207031 136.808594 L 125.207031 168.257812 C 125.207031 173.003906 129.089844 176.890625 133.839844 176.890625 L 153.914062 176.890625 C 154.132812 175.351562 154.417969 173.773438 154.730469 172.261719 Z M 154.730469 172.261719 " fill-opacity="1" fill-rule="nonzero"/></g><g clip-path="url(#ffc5ef0600)"><path fill="#f18043" d="M 206.039062 96.054688 C 206.800781 96.816406 207.222656 97.820312 207.222656 98.882812 L 207.222656 100.589844 C 208.648438 99.953125 210.214844 99.546875 211.84375 99.539062 L 211.84375 98.882812 C 211.84375 94.136719 207.960938 90.25 203.210938 90.25 L 171.765625 90.25 C 167.015625 90.25 163.128906 94.132812 163.128906 98.882812 L 163.128906 126.394531 C 163.695312 125.808594 164.335938 125.582031 164.609375 125.507812 L 164.671875 125.492188 C 164.894531 125.433594 165.121094 125.402344 165.351562 125.394531 C 165.398438 125.394531 165.449219 125.390625 165.496094 125.390625 C 166.257812 125.390625 166.992188 125.597656 167.753906 126.019531 L 167.753906 98.882812 C 167.753906 97.820312 168.175781 96.816406 168.9375 96.054688 C 169.695312 95.292969 170.703125 94.875 171.761719 94.875 L 203.210938 94.875 C 204.273438 94.875 205.277344 95.292969 206.039062 96.054688 Z M 206.039062 96.054688 " fill-opacity="1" fill-rule="nonzero"/></g><g clip-path="url(#8a8d502cb9)"><path fill="#f18043" d="M 241.136719 128.171875 L 211.847656 128.171875 L 211.847656 116.800781 C 211.835938 116.804688 211.824219 116.8125 211.808594 116.8125 C 210.730469 118.039062 209.128906 118.992188 207.222656 119.558594 L 207.222656 129.378906 C 207.609375 129.46875 208.011719 129.558594 208.429688 129.648438 C 211.101562 130.226562 214.085938 130.875 215.734375 132.796875 L 241.140625 132.796875 C 242.199219 132.796875 243.203125 133.214844 243.964844 133.976562 C 244.726562 134.738281 245.148438 135.742188 245.148438 136.804688 L 245.148438 168.253906 C 245.148438 169.316406 244.726562 170.320312 243.964844 171.082031 C 243.203125 171.84375 242.199219 172.261719 241.140625 172.261719 L 209.597656 172.261719 C 210.074219 173.6875 210.800781 175.242188 211.847656 176.949219 L 211.847656 176.886719 L 241.140625 176.886719 C 245.886719 176.886719 249.773438 173 249.773438 168.253906 L 249.773438 136.804688 C 249.769531 132.058594 245.886719 128.171875 241.136719 128.171875 Z M 241.136719 128.171875 " fill-opacity="1" fill-rule="nonzero"/></g><path fill="#8c52ff" d="M 155.824219 156.554688 C 156.496094 157.398438 160.707031 162.789062 159.695312 165.484375 C 159.054688 167.191406 157.734375 172.25 157.03125 176.890625 L 159.882812 176.890625 C 162.445312 173.320312 176.054688 153.433594 179.472656 147.1875 C 179.480469 147.175781 179.488281 147.160156 179.492188 147.148438 C 177.1875 142.570312 174.382812 137.460938 173.339844 136.339844 C 172.257812 135.28125 167.414062 128.382812 165.457031 128.476562 C 165.445312 128.476562 165.433594 128.476562 165.421875 128.480469 C 164.679688 128.683594 165.761719 135.667969 165.761719 135.667969 C 165.761719 135.667969 160.492188 128.382812 159.320312 128.382812 C 159.269531 128.382812 159.226562 128.394531 159.191406 128.425781 C 158.347656 129.097656 158.804688 134.828125 160.371094 137.523438 C 159.359375 138.195312 155.316406 139.039062 154.980469 140.21875 C 154.644531 141.394531 152.453125 144.597656 151.613281 145.605469 C 150.769531 146.617188 147.570312 148.132812 147.402344 149.144531 C 147.234375 150.15625 148.75 154.367188 150.9375 155.039062 C 153.125 155.710938 155.148438 155.710938 155.824219 156.554688 Z M 155.824219 156.554688 " fill-opacity="1" fill-rule="nonzero"/><g clip-path="url(#d7b4d82cae)"><path fill="#8c52ff" d="M 227.847656 144.03125 C 227.582031 144.019531 227.320312 144.011719 227.089844 144.003906 C 225.921875 143.972656 224.59375 143.933594 223.324219 143.589844 C 219.546875 142.574219 216.011719 139.492188 213.621094 135.128906 C 212.871094 133.765625 210.042969 133.152344 207.773438 132.660156 C 206.859375 132.460938 205.992188 132.273438 205.199219 132.035156 C 202.46875 131.214844 200.785156 128.152344 199.003906 124.910156 C 198.578125 124.140625 198.148438 123.359375 197.710938 122.617188 C 197.496094 122.253906 196.96875 122.234375 196.726562 122.585938 C 192.550781 128.644531 194.296875 133.582031 193.695312 133.953125 C 191.953125 134.75 185.285156 143.1875 182.492188 148.816406 C 179.375 155.109375 166.296875 174.683594 163.128906 178.773438 L 163.128906 206.179688 C 163.128906 210.925781 167.015625 214.8125 171.765625 214.8125 L 203.214844 214.8125 C 207.960938 214.8125 211.847656 210.929688 211.847656 206.179688 L 211.847656 182.335938 C 211.832031 182.316406 211.816406 182.292969 211.804688 182.273438 C 204.433594 172.769531 205.136719 166.589844 206.972656 161.152344 C 207.75 158.847656 211.160156 158.125 217.519531 158.125 C 222.121094 158.125 225.40625 156.632812 227.292969 153.695312 C 229.148438 150.800781 229.296875 147.183594 229.039062 145.125 C 228.964844 144.515625 228.457031 144.058594 227.847656 144.03125 Z M 227.847656 144.03125 " fill-opacity="1" fill-rule="nonzero"/></g><path fill="#8c52ff" d="M 213.0625 110.671875 C 212.660156 109.929688 212.003906 109.175781 211.136719 109.023438 C 207.679688 108.410156 206.429688 106.976562 213.730469 102.890625 C 209.476562 101.570312 204.621094 105.351562 203.160156 108.105469 C 199.636719 105.796875 195.878906 106.339844 193.015625 100.929688 C 189.964844 107.117188 195.519531 112.875 195.519531 112.875 C 195.519531 112.875 186.039062 117.761719 183.453125 119.710938 C 183.160156 119.933594 183.382812 120.394531 183.742188 120.308594 C 187.691406 119.347656 193.664062 114.554688 199.5625 116.425781 C 200.734375 116.886719 202.210938 117.121094 203.800781 117.03125 C 206.875 116.859375 209.394531 115.535156 210.058594 113.886719 C 210.367188 113.929688 210.6875 113.914062 211.007812 113.835938 C 211.71875 113.65625 212.402344 113.28125 212.78125 112.722656 C 212.984375 112.425781 213.300781 112.222656 213.65625 112.144531 C 214.011719 112.0625 214.359375 111.988281 214.71875 112 C 214.757812 111.179688 213.492188 111.457031 213.0625 110.671875 Z M 213.0625 110.671875 " fill-opacity="1" fill-rule="nonzero"/><g fill="#f18043" fill-opacity="1"><g transform="translate(79.006889, 253.416809)"><g><path d="M 2.21875 -22.140625 L 11.859375 -22.140625 C 14.691406 -22.140625 16.882812 -21.46875 18.4375 -20.125 C 20 -18.789062 20.78125 -16.890625 20.78125 -14.421875 C 20.78125 -11.828125 20 -9.8125 18.4375 -8.375 C 16.882812 -6.945312 14.691406 -6.234375 11.859375 -6.234375 L 7.84375 -6.234375 L 7.84375 0 L 2.21875 0 Z M 7.84375 -17.71875 L 7.84375 -10.65625 L 11.578125 -10.65625 C 12.828125 -10.65625 13.785156 -10.960938 14.453125 -11.578125 C 15.128906 -12.191406 15.46875 -13.078125 15.46875 -14.234375 C 15.46875 -15.378906 15.128906 -16.242188 14.453125 -16.828125 C 13.785156 -17.421875 12.828125 -17.71875 11.578125 -17.71875 Z M 7.84375 -17.71875 "/></g></g></g><g fill="#f18043" fill-opacity="1"><g transform="translate(109.003059, 253.416809)"><g><path d="M 19.546875 -17.71875 L 7.84375 -17.71875 L 7.84375 -13.328125 L 18.421875 -13.328125 L 18.421875 -8.890625 L 7.84375 -8.890625 L 7.84375 -4.421875 L 19.90625 -4.421875 L 19.90625 0 L 2.21875 0 L 2.21875 -22.140625 L 19.546875 -22.140625 Z M 19.546875 -17.71875 "/></g></g></g><g fill="#f18043" fill-opacity="1"><g transform="translate(138.809383, 253.416809)"><g><path d="M 19.140625 -17.625 L 12.46875 -17.625 L 12.46875 0 L 6.828125 0 L 6.828125 -17.625 L 0.21875 -17.625 L 0.21875 -22.1875 L 19.140625 -22.1875 Z M 19.140625 -17.625 "/></g></g></g><g fill="#f18043" fill-opacity="1"><g transform="translate(166.622352, 253.416809)"><g><path d="M 10.09375 -7.96875 L 1.734375 -7.96875 L 1.734375 -11.421875 L 10.09375 -11.421875 Z M 10.09375 -7.96875 "/></g></g></g><g fill="#8c52ff" fill-opacity="1"><g transform="translate(186.936573, 253.416809)"><g><path d="M 2.21875 -22.140625 L 11.859375 -22.140625 C 14.691406 -22.140625 16.882812 -21.46875 18.4375 -20.125 C 20 -18.789062 20.78125 -16.890625 20.78125 -14.421875 C 20.78125 -11.828125 20 -9.8125 18.4375 -8.375 C 16.882812 -6.945312 14.691406 -6.234375 11.859375 -6.234375 L 7.84375 -6.234375 L 7.84375 0 L 2.21875 0 Z M 7.84375 -17.71875 L 7.84375 -10.65625 L 11.578125 -10.65625 C 12.828125 -10.65625 13.785156 -10.960938 14.453125 -11.578125 C 15.128906 -12.191406 15.46875 -13.078125 15.46875 -14.234375 C 15.46875 -15.378906 15.128906 -16.242188 14.453125 -16.828125 C 13.785156 -17.421875 12.828125 -17.71875 11.578125 -17.71875 Z M 7.84375 -17.71875 "/></g></g></g><g fill="#8c52ff" fill-opacity="1"><g transform="translate(216.932743, 253.416809)"><g><path d="M 7.84375 -4.71875 L 17.25 -4.71875 L 17.25 0 L 2.21875 0 L 2.21875 -22.140625 L 7.84375 -22.140625 Z M 7.84375 -4.71875 "/></g></g></g><g fill="#8c52ff" fill-opacity="1"><g transform="translate(243.132039, 253.416809)"><g><path d="M 22.140625 -22.140625 L 22.140625 -9.296875 C 22.140625 -6.367188 21.234375 -4.046875 19.421875 -2.328125 C 17.609375 -0.609375 15.15625 0.25 12.0625 0.25 C 8.9375 0.25 6.445312 -0.609375 4.59375 -2.328125 C 2.75 -4.046875 1.828125 -6.367188 1.828125 -9.296875 L 1.828125 -22.140625 L 7.46875 -22.140625 L 7.46875 -9.296875 C 7.46875 -7.828125 7.894531 -6.65625 8.75 -5.78125 C 9.601562 -4.90625 10.71875 -4.46875 12.09375 -4.46875 C 13.4375 -4.46875 14.515625 -4.898438 15.328125 -5.765625 C 16.140625 -6.628906 16.546875 -7.804688 16.546875 -9.296875 L 16.546875 -22.140625 Z M 22.140625 -22.140625 "/></g></g></g><g fill="#8c52ff" fill-opacity="1"><g transform="translate(275.596173, 253.416809)"><g><path d="M 10.71875 -22.40625 C 14.03125 -22.40625 16.941406 -21.582031 19.453125 -19.9375 L 17.34375 -15.53125 C 16.175781 -16.207031 14.925781 -16.757812 13.59375 -17.1875 C 12.269531 -17.625 11.15625 -17.84375 10.25 -17.84375 C 8.625 -17.84375 7.8125 -17.304688 7.8125 -16.234375 C 7.8125 -15.535156 8.210938 -14.972656 9.015625 -14.546875 C 9.816406 -14.128906 10.789062 -13.765625 11.9375 -13.453125 C 13.09375 -13.148438 14.242188 -12.78125 15.390625 -12.34375 C 16.546875 -11.914062 17.519531 -11.21875 18.3125 -10.25 C 19.113281 -9.28125 19.515625 -8.054688 19.515625 -6.578125 C 19.515625 -4.453125 18.679688 -2.789062 17.015625 -1.59375 C 15.347656 -0.40625 13.226562 0.1875 10.65625 0.1875 C 8.820312 0.1875 7.007812 -0.125 5.21875 -0.75 C 3.425781 -1.382812 1.863281 -2.253906 0.53125 -3.359375 L 2.71875 -7.6875 C 3.832031 -6.71875 5.148438 -5.921875 6.671875 -5.296875 C 8.191406 -4.671875 9.539062 -4.359375 10.71875 -4.359375 C 11.632812 -4.359375 12.34375 -4.519531 12.84375 -4.84375 C 13.351562 -5.175781 13.609375 -5.660156 13.609375 -6.296875 C 13.609375 -6.910156 13.316406 -7.421875 12.734375 -7.828125 C 12.148438 -8.242188 11.425781 -8.550781 10.5625 -8.75 C 9.695312 -8.945312 8.757812 -9.210938 7.75 -9.546875 C 6.738281 -9.890625 5.800781 -10.257812 4.9375 -10.65625 C 4.070312 -11.0625 3.347656 -11.703125 2.765625 -12.578125 C 2.179688 -13.453125 1.890625 -14.5 1.890625 -15.71875 C 1.890625 -17.75 2.695312 -19.367188 4.3125 -20.578125 C 5.925781 -21.796875 8.0625 -22.40625 10.71875 -22.40625 Z M 10.71875 -22.40625 "/></g></g></g></svg>